<svg viewBox="0 0 336 158" fill="none" xmlns="http://www.w3.org/2000/svg">
<path d="M10.8777 79.5983C7.64046 77.5163 7.87101 72.7106 11.2927 70.948L111.378 19.3931C114.8 17.6305 118.846 20.233 118.662 24.0776L113.267 136.532C113.083 140.376 108.806 142.579 105.568 140.497L10.8777 79.5983Z" fill="black"/>
<path d="M144.037 54.2035H163.647V57.5955H144.037V54.2035ZM144.461 73.3365H140.539V36.2365H165.979V39.6285H144.461V73.3365ZM177.576 52.8255H197.186V56.1645H177.576V52.8255ZM178 69.9445H200.313V73.3365H174.078V36.2365H199.518V39.6285H178V69.9445ZM209.532 73.3365V36.2365H213.454V73.3365H209.532ZM225.525 73.3365V36.2365H240.63C244.588 36.2365 248.05 37.0315 251.018 38.6215C254.022 40.1762 256.354 42.3492 258.014 45.1405C259.675 47.9319 260.505 51.1472 260.505 54.7865C260.505 58.4259 259.675 61.6412 258.014 64.4325C256.354 67.2239 254.022 69.4145 251.018 71.0045C248.05 72.5592 244.588 73.3365 240.63 73.3365H225.525ZM229.447 69.9445H240.418C243.704 69.9445 246.549 69.3085 248.951 68.0365C251.389 66.7292 253.28 64.9449 254.622 62.6835C255.965 60.3869 256.636 57.7545 256.636 54.7865C256.636 51.7832 255.965 49.1509 254.622 46.8895C253.28 44.6282 251.389 42.8615 248.951 41.5895C246.549 40.2822 243.704 39.6285 240.418 39.6285H229.447V69.9445Z" fill="black"/>
<path d="M136.777 105.337V91.3365H142.477C143.97 91.3365 145.277 91.6365 146.397 92.2365C147.53 92.8232 148.41 93.6432 149.037 94.6965C149.664 95.7499 149.977 96.9632 149.977 98.3365C149.977 99.7099 149.664 100.923 149.037 101.977C148.41 103.03 147.53 103.857 146.397 104.457C145.277 105.043 143.97 105.337 142.477 105.337H136.777ZM138.257 104.057H142.397C143.637 104.057 144.71 103.817 145.617 103.337C146.537 102.843 147.25 102.17 147.757 101.317C148.264 100.45 148.517 99.4565 148.517 98.3365C148.517 97.2032 148.264 96.2099 147.757 95.3565C147.25 94.5032 146.537 93.8365 145.617 93.3565C144.71 92.8632 143.637 92.6165 142.397 92.6165H138.257V104.057ZM157.461 105.437C156.367 105.437 155.407 105.21 154.581 104.757C153.754 104.29 153.107 103.657 152.641 102.857C152.174 102.043 151.941 101.117 151.941 100.077C151.941 99.0365 152.161 98.1165 152.601 97.3165C153.054 96.5165 153.667 95.8899 154.441 95.4365C155.227 94.9699 156.107 94.7365 157.081 94.7365C158.067 94.7365 158.941 94.9632 159.701 95.4165C160.474 95.8565 161.081 96.4832 161.521 97.2965C161.961 98.0965 162.181 99.0232 162.181 100.077C162.181 100.143 162.174 100.217 162.161 100.297C162.161 100.363 162.161 100.437 162.161 100.517H153.021V99.4565H161.401L160.841 99.8765C160.841 99.1165 160.674 98.4432 160.341 97.8565C160.021 97.2565 159.581 96.7899 159.021 96.4565C158.461 96.1232 157.814 95.9565 157.081 95.9565C156.361 95.9565 155.714 96.1232 155.141 96.4565C154.567 96.7899 154.121 97.2565 153.801 97.8565C153.481 98.4565 153.321 99.1432 153.321 99.9165V100.137C153.321 100.937 153.494 101.643 153.841 102.257C154.201 102.857 154.694 103.33 155.321 103.677C155.961 104.01 156.687 104.177 157.501 104.177C158.141 104.177 158.734 104.063 159.281 103.837C159.841 103.61 160.321 103.263 160.721 102.797L161.521 103.717C161.054 104.277 160.467 104.703 159.761 104.997C159.067 105.29 158.301 105.437 157.461 105.437ZM155.761 93.1965L158.501 90.7165H160.401L157.161 93.1965H155.761ZM167.576 105.337L162.916 94.8365H164.396L168.676 104.577H167.976L172.316 94.8365H173.716L169.036 105.337H167.576ZM179.882 105.437C178.789 105.437 177.829 105.21 177.002 104.757C176.176 104.29 175.529 103.657 175.062 102.857C174.596 102.043 174.362 101.117 174.362 100.077C174.362 99.0365 174.582 98.1165 175.022 97.3165C175.476 96.5165 176.089 95.8899 176.862 95.4365C177.649 94.9699 178.529 94.7365 179.502 94.7365C180.489 94.7365 181.362 94.9632 182.122 95.4165C182.896 95.8565 183.502 96.4832 183.942 97.2965C184.382 98.0965 184.602 99.0232 184.602 100.077C184.602 100.143 184.596 100.217 184.582 100.297C184.582 100.363 184.582 100.437 184.582 100.517H175.442V99.4565H183.822L183.262 99.8765C183.262 99.1165 183.096 98.4432 182.762 97.8565C182.442 97.2565 182.002 96.7899 181.442 96.4565C180.882 96.1232 180.236 95.9565 179.502 95.9565C178.782 95.9565 178.136 96.1232 177.562 96.4565C176.989 96.7899 176.542 97.2565 176.222 97.8565C175.902 98.4565 175.742 99.1432 175.742 99.9165V100.137C175.742 100.937 175.916 101.643 176.262 102.257C176.622 102.857 177.116 103.33 177.742 103.677C178.382 104.01 179.109 104.177 179.922 104.177C180.562 104.177 181.156 104.063 181.702 103.837C182.262 103.61 182.742 103.263 183.142 102.797L183.942 103.717C183.476 104.277 182.889 104.703 182.182 104.997C181.489 105.29 180.722 105.437 179.882 105.437ZM187.493 105.337V90.4965H188.913V105.337H187.493ZM197.144 105.437C196.13 105.437 195.217 105.21 194.404 104.757C193.604 104.29 192.97 103.657 192.504 102.857C192.037 102.043 191.804 101.117 191.804 100.077C191.804 99.0232 192.037 98.0965 192.504 97.2965C192.97 96.4965 193.604 95.8699 194.404 95.4165C195.204 94.9632 196.117 94.7365 197.144 94.7365C198.184 94.7365 199.104 94.9632 199.904 95.4165C200.717 95.8699 201.35 96.4965 201.804 97.2965C202.27 98.0965 202.504 99.0232 202.504 100.077C202.504 101.117 202.27 102.043 201.804 102.857C201.35 103.657 200.717 104.29 199.904 104.757C199.09 105.21 198.17 105.437 197.144 105.437ZM197.144 104.177C197.904 104.177 198.577 104.01 199.164 103.677C199.75 103.33 200.21 102.85 200.544 102.237C200.89 101.61 201.064 100.89 201.064 100.077C201.064 99.2499 200.89 98.5299 200.544 97.9165C200.21 97.3032 199.75 96.8299 199.164 96.4965C198.577 96.1499 197.91 95.9765 197.164 95.9765C196.417 95.9765 195.75 96.1499 195.164 96.4965C194.577 96.8299 194.11 97.3032 193.764 97.9165C193.417 98.5299 193.244 99.2499 193.244 100.077C193.244 100.89 193.417 101.61 193.764 102.237C194.11 102.85 194.577 103.33 195.164 103.677C195.75 104.01 196.41 104.177 197.144 104.177ZM210.823 105.437C209.916 105.437 209.096 105.23 208.363 104.817C207.63 104.39 207.043 103.783 206.603 102.997C206.176 102.197 205.963 101.223 205.963 100.077C205.963 98.9299 206.176 97.9632 206.603 97.1765C207.03 96.3765 207.61 95.7699 208.343 95.3565C209.076 94.9432 209.903 94.7365 210.823 94.7365C211.823 94.7365 212.716 94.9632 213.503 95.4165C214.303 95.8565 214.93 96.4832 215.383 97.2965C215.836 98.0965 216.063 99.0232 216.063 100.077C216.063 101.143 215.836 102.077 215.383 102.877C214.93 103.677 214.303 104.303 213.503 104.757C212.716 105.21 211.823 105.437 210.823 105.437ZM205.403 109.217V94.8365H206.763V97.9965L206.623 100.097L206.823 102.217V109.217H205.403ZM210.723 104.177C211.47 104.177 212.136 104.01 212.723 103.677C213.31 103.33 213.776 102.85 214.123 102.237C214.47 101.61 214.643 100.89 214.643 100.077C214.643 99.2632 214.47 98.5499 214.123 97.9365C213.776 97.3232 213.31 96.8432 212.723 96.4965C212.136 96.1499 211.47 95.9765 210.723 95.9765C209.976 95.9765 209.303 96.1499 208.703 96.4965C208.116 96.8432 207.65 97.3232 207.303 97.9365C206.97 98.5499 206.803 99.2632 206.803 100.077C206.803 100.89 206.97 101.61 207.303 102.237C207.65 102.85 208.116 103.33 208.703 103.677C209.303 104.01 209.976 104.177 210.723 104.177ZM224.378 105.437C223.471 105.437 222.651 105.23 221.918 104.817C221.184 104.39 220.598 103.783 220.158 102.997C219.731 102.197 219.518 101.223 219.518 100.077C219.518 98.9299 219.731 97.9632 220.158 97.1765C220.584 96.3765 221.164 95.7699 221.898 95.3565C222.631 94.9432 223.458 94.7365 224.378 94.7365C225.378 94.7365 226.271 94.9632 227.058 95.4165C227.858 95.8565 228.484 96.4832 228.938 97.2965C229.391 98.0965 229.618 99.0232 229.618 100.077C229.618 101.143 229.391 102.077 228.938 102.877C228.484 103.677 227.858 104.303 227.058 104.757C226.271 105.21 225.378 105.437 224.378 105.437ZM218.958 109.217V94.8365H220.318V97.9965L220.178 100.097L220.378 102.217V109.217H218.958ZM224.278 104.177C225.024 104.177 225.691 104.01 226.278 103.677C226.864 103.33 227.331 102.85 227.678 102.237C228.024 101.61 228.198 100.89 228.198 100.077C228.198 99.2632 228.024 98.5499 227.678 97.9365C227.331 97.3232 226.864 96.8432 226.278 96.4965C225.691 96.1499 225.024 95.9765 224.278 95.9765C223.531 95.9765 222.858 96.1499 222.258 96.4965C221.671 96.8432 221.204 97.3232 220.858 97.9365C220.524 98.5499 220.358 99.2632 220.358 100.077C220.358 100.89 220.524 101.61 220.858 102.237C221.204 102.85 221.671 103.33 222.258 103.677C222.858 104.01 223.531 104.177 224.278 104.177ZM236.972 105.437C235.879 105.437 234.919 105.21 234.092 104.757C233.266 104.29 232.619 103.657 232.152 102.857C231.686 102.043 231.452 101.117 231.452 100.077C231.452 99.0365 231.672 98.1165 232.112 97.3165C232.566 96.5165 233.179 95.8899 233.952 95.4365C234.739 94.9699 235.619 94.7365 236.592 94.7365C237.579 94.7365 238.452 94.9632 239.212 95.4165C239.986 95.8565 240.592 96.4832 241.032 97.2965C241.472 98.0965 241.692 99.0232 241.692 100.077C241.692 100.143 241.686 100.217 241.672 100.297C241.672 100.363 241.672 100.437 241.672 100.517H232.532V99.4565H240.912L240.352 99.8765C240.352 99.1165 240.186 98.4432 239.852 97.8565C239.532 97.2565 239.092 96.7899 238.532 96.4565C237.972 96.1232 237.326 95.9565 236.592 95.9565C235.872 95.9565 235.226 96.1232 234.652 96.4565C234.079 96.7899 233.632 97.2565 233.312 97.8565C232.992 98.4565 232.832 99.1432 232.832 99.9165V100.137C232.832 100.937 233.006 101.643 233.352 102.257C233.712 102.857 234.206 103.33 234.832 103.677C235.472 104.01 236.199 104.177 237.012 104.177C237.652 104.177 238.246 104.063 238.792 103.837C239.352 103.61 239.832 103.263 240.232 102.797L241.032 103.717C240.566 104.277 239.979 104.703 239.272 104.997C238.579 105.29 237.812 105.437 236.972 105.437ZM248.923 105.437C248.029 105.437 247.249 105.27 246.583 104.937C245.916 104.603 245.396 104.103 245.023 103.437C244.663 102.77 244.483 101.937 244.483 100.937V94.8365H245.903V100.777C245.903 101.897 246.176 102.743 246.723 103.317C247.283 103.877 248.063 104.157 249.063 104.157C249.796 104.157 250.429 104.01 250.963 103.717C251.509 103.41 251.923 102.97 252.203 102.397C252.496 101.823 252.643 101.137 252.643 100.337V94.8365H254.063V105.337H252.703V102.457L252.923 102.977C252.589 103.75 252.069 104.357 251.363 104.797C250.669 105.223 249.856 105.437 248.923 105.437ZM258.02 105.337V94.8365H259.38V97.6965L259.24 97.1965C259.533 96.3965 260.027 95.7899 260.72 95.3765C261.413 94.9499 262.273 94.7365 263.3 94.7365V96.1165C263.247 96.1165 263.193 96.1165 263.14 96.1165C263.087 96.1032 263.033 96.0965 262.98 96.0965C261.873 96.0965 261.007 96.4365 260.38 97.1165C259.753 97.7832 259.44 98.7365 259.44 99.9765V105.337H258.02ZM275.462 105.437C274.462 105.437 273.562 105.21 272.762 104.757C271.975 104.303 271.355 103.677 270.902 102.877C270.448 102.063 270.222 101.13 270.222 100.077C270.222 99.0099 270.448 98.0765 270.902 97.2765C271.355 96.4765 271.975 95.8565 272.762 95.4165C273.562 94.9632 274.462 94.7365 275.462 94.7365C276.382 94.7365 277.202 94.9432 277.922 95.3565C278.655 95.7699 279.235 96.3765 279.662 97.1765C280.102 97.9632 280.322 98.9299 280.322 100.077C280.322 101.21 280.108 102.177 279.682 102.977C279.255 103.777 278.675 104.39 277.942 104.817C277.222 105.23 276.395 105.437 275.462 105.437ZM275.562 104.177C276.308 104.177 276.975 104.01 277.562 103.677C278.162 103.33 278.628 102.85 278.962 102.237C279.308 101.61 279.482 100.89 279.482 100.077C279.482 99.2499 279.308 98.5299 278.962 97.9165C278.628 97.3032 278.162 96.8299 277.562 96.4965C276.975 96.1499 276.308 95.9765 275.562 95.9765C274.828 95.9765 274.168 96.1499 273.582 96.4965C272.995 96.8299 272.528 97.3032 272.182 97.9165C271.835 98.5299 271.662 99.2499 271.662 100.077C271.662 100.89 271.835 101.61 272.182 102.237C272.528 102.85 272.995 103.33 273.582 103.677C274.168 104.01 274.828 104.177 275.562 104.177ZM279.522 105.337V102.177L279.662 100.057L279.462 97.9365V90.4965H280.882V105.337H279.522ZM289.296 105.437C288.203 105.437 287.243 105.21 286.416 104.757C285.59 104.29 284.943 103.657 284.476 102.857C284.01 102.043 283.776 101.117 283.776 100.077C283.776 99.0365 283.996 98.1165 284.436 97.3165C284.89 96.5165 285.503 95.8899 286.276 95.4365C287.063 94.9699 287.943 94.7365 288.916 94.7365C289.903 94.7365 290.776 94.9632 291.536 95.4165C292.31 95.8565 292.916 96.4832 293.356 97.2965C293.796 98.0965 294.016 99.0232 294.016 100.077C294.016 100.143 294.01 100.217 293.996 100.297C293.996 100.363 293.996 100.437 293.996 100.517H284.856V99.4565H293.236L292.676 99.8765C292.676 99.1165 292.51 98.4432 292.176 97.8565C291.856 97.2565 291.416 96.7899 290.856 96.4565C290.296 96.1232 289.65 95.9565 288.916 95.9565C288.196 95.9565 287.55 96.1232 286.976 96.4565C286.403 96.7899 285.956 97.2565 285.636 97.8565C285.316 98.4565 285.156 99.1432 285.156 99.9165V100.137C285.156 100.937 285.33 101.643 285.676 102.257C286.036 102.857 286.53 103.33 287.156 103.677C287.796 104.01 288.523 104.177 289.336 104.177C289.976 104.177 290.57 104.063 291.116 103.837C291.676 103.61 292.156 103.263 292.556 102.797L293.356 103.717C292.89 104.277 292.303 104.703 291.596 104.997C290.903 105.29 290.136 105.437 289.296 105.437ZM304.961 105.437C304.094 105.437 303.274 105.317 302.501 105.077C301.728 104.823 301.121 104.51 300.681 104.137L301.321 103.017C301.748 103.337 302.294 103.617 302.961 103.857C303.628 104.083 304.328 104.197 305.061 104.197C306.061 104.197 306.781 104.043 307.221 103.737C307.661 103.417 307.881 102.997 307.881 102.477C307.881 102.09 307.754 101.79 307.501 101.577C307.261 101.35 306.941 101.183 306.541 101.077C306.141 100.957 305.694 100.857 305.201 100.777C304.708 100.697 304.214 100.603 303.721 100.497C303.241 100.39 302.801 100.237 302.401 100.037C302.001 99.8232 301.674 99.5365 301.421 99.1765C301.181 98.8165 301.061 98.3365 301.061 97.7365C301.061 97.1632 301.221 96.6499 301.541 96.1965C301.861 95.7432 302.328 95.3899 302.941 95.1365C303.568 94.8699 304.328 94.7365 305.221 94.7365C305.901 94.7365 306.581 94.8299 307.261 95.0165C307.941 95.1899 308.501 95.4232 308.941 95.7165L308.321 96.8565C307.854 96.5365 307.354 96.3099 306.821 96.1765C306.288 96.0299 305.754 95.9565 305.221 95.9565C304.274 95.9565 303.574 96.1232 303.121 96.4565C302.681 96.7765 302.461 97.1899 302.461 97.6965C302.461 98.0965 302.581 98.4099 302.821 98.6365C303.074 98.8632 303.401 99.0432 303.801 99.1765C304.214 99.2965 304.661 99.3965 305.141 99.4765C305.634 99.5565 306.121 99.6565 306.601 99.7765C307.094 99.8832 307.541 100.037 307.941 100.237C308.354 100.423 308.681 100.697 308.921 101.057C309.174 101.403 309.301 101.863 309.301 102.437C309.301 103.05 309.128 103.583 308.781 104.037C308.448 104.477 307.954 104.823 307.301 105.077C306.661 105.317 305.881 105.437 304.961 105.437ZM311.907 105.337V94.8365H313.327V105.337H311.907ZM312.627 92.5165C312.333 92.5165 312.087 92.4165 311.887 92.2165C311.687 92.0165 311.587 91.7765 311.587 91.4965C311.587 91.2165 311.687 90.9832 311.887 90.7965C312.087 90.5965 312.333 90.4965 312.627 90.4965C312.92 90.4965 313.167 90.5899 313.367 90.7765C313.567 90.9632 313.667 91.1965 313.667 91.4765C313.667 91.7699 313.567 92.0165 313.367 92.2165C313.18 92.4165 312.933 92.5165 312.627 92.5165ZM320.598 105.437C319.611 105.437 318.851 105.17 318.318 104.637C317.785 104.103 317.518 103.35 317.518 102.377V92.5165H318.938V102.297C318.938 102.91 319.091 103.383 319.398 103.717C319.718 104.05 320.171 104.217 320.758 104.217C321.385 104.217 321.905 104.037 322.318 103.677L322.818 104.697C322.538 104.95 322.198 105.137 321.798 105.257C321.411 105.377 321.011 105.437 320.598 105.437ZM315.638 96.0165V94.8365H322.138V96.0165H315.638ZM329.492 105.437C328.398 105.437 327.438 105.21 326.612 104.757C325.785 104.29 325.138 103.657 324.672 102.857C324.205 102.043 323.972 101.117 323.972 100.077C323.972 99.0365 324.192 98.1165 324.632 97.3165C325.085 96.5165 325.698 95.8899 326.472 95.4365C327.258 94.9699 328.138 94.7365 329.112 94.7365C330.098 94.7365 330.972 94.9632 331.732 95.4165C332.505 95.8565 333.112 96.4832 333.552 97.2965C333.992 98.0965 334.212 99.0232 334.212 100.077C334.212 100.143 334.205 100.217 334.192 100.297C334.192 100.363 334.192 100.437 334.192 100.517H325.052V99.4565H333.432L332.872 99.8765C332.872 99.1165 332.705 98.4432 332.372 97.8565C332.052 97.2565 331.612 96.7899 331.052 96.4565C330.492 96.1232 329.845 95.9565 329.112 95.9565C328.392 95.9565 327.745 96.1232 327.172 96.4565C326.598 96.7899 326.152 97.2565 325.832 97.8565C325.512 98.4565 325.352 99.1432 325.352 99.9165V100.137C325.352 100.937 325.525 101.643 325.872 102.257C326.232 102.857 326.725 103.33 327.352 103.677C327.992 104.01 328.718 104.177 329.532 104.177C330.172 104.177 330.765 104.063 331.312 103.837C331.872 103.61 332.352 103.263 332.752 102.797L333.552 103.717C333.085 104.277 332.498 104.703 331.792 104.997C331.098 105.29 330.332 105.437 329.492 105.437ZM138.617 129.337L134.657 118.837H136.017L139.617 128.577H138.997L142.697 118.837H143.917L147.577 128.577H146.957L150.617 118.837H151.917L147.937 129.337H146.597L143.077 120.177H143.497L139.957 129.337H138.617ZM158.222 129.437C157.129 129.437 156.169 129.21 155.342 128.757C154.516 128.29 153.869 127.657 153.402 126.857C152.936 126.043 152.702 125.117 152.702 124.077C152.702 123.037 152.922 122.117 153.362 121.317C153.816 120.517 154.429 119.89 155.202 119.437C155.989 118.97 156.869 118.737 157.842 118.737C158.829 118.737 159.702 118.963 160.462 119.417C161.236 119.857 161.842 120.483 162.282 121.297C162.722 122.097 162.942 123.023 162.942 124.077C162.942 124.143 162.936 124.217 162.922 124.297C162.922 124.363 162.922 124.437 162.922 124.517H153.782V123.457H162.162L161.602 123.877C161.602 123.117 161.436 122.443 161.102 121.857C160.782 121.257 160.342 120.79 159.782 120.457C159.222 120.123 158.576 119.957 157.842 119.957C157.122 119.957 156.476 120.123 155.902 120.457C155.329 120.79 154.882 121.257 154.562 121.857C154.242 122.457 154.082 123.143 154.082 123.917V124.137C154.082 124.937 154.256 125.643 154.602 126.257C154.962 126.857 155.456 127.33 156.082 127.677C156.722 128.01 157.449 128.177 158.262 128.177C158.902 128.177 159.496 128.063 160.042 127.837C160.602 127.61 161.082 127.263 161.482 126.797L162.282 127.717C161.816 128.277 161.229 128.703 160.522 128.997C159.829 129.29 159.062 129.437 158.222 129.437ZM171.253 129.437C170.333 129.437 169.506 129.23 168.773 128.817C168.039 128.39 167.459 127.777 167.033 126.977C166.606 126.177 166.393 125.21 166.393 124.077C166.393 122.93 166.606 121.963 167.033 121.177C167.473 120.377 168.059 119.77 168.793 119.357C169.526 118.943 170.346 118.737 171.253 118.737C172.253 118.737 173.146 118.963 173.933 119.417C174.733 119.857 175.359 120.477 175.813 121.277C176.266 122.077 176.493 123.01 176.493 124.077C176.493 125.13 176.266 126.063 175.813 126.877C175.359 127.677 174.733 128.303 173.933 128.757C173.146 129.21 172.253 129.437 171.253 129.437ZM165.833 129.337V114.497H167.253V121.937L167.053 124.057L167.193 126.177V129.337H165.833ZM171.153 128.177C171.899 128.177 172.566 128.01 173.153 127.677C173.739 127.33 174.206 126.85 174.553 126.237C174.899 125.61 175.073 124.89 175.073 124.077C175.073 123.25 174.899 122.53 174.553 121.917C174.206 121.303 173.739 120.83 173.153 120.497C172.566 120.15 171.899 119.977 171.153 119.977C170.406 119.977 169.733 120.15 169.133 120.497C168.546 120.83 168.079 121.303 167.733 121.917C167.399 122.53 167.233 123.25 167.233 124.077C167.233 124.89 167.399 125.61 167.733 126.237C168.079 126.85 168.546 127.33 169.133 127.677C169.733 128.01 170.406 128.177 171.153 128.177Z" fill="black"/>
</svg>
