<svg width="23" height="23" viewBox="0 0 23 23" fill="none" xmlns="http://www.w3.org/2000/svg">
<path d="M16.3751 14.5H15.3876L15.0376 14.1625C15.8188 13.255 16.3897 12.186 16.7095 11.032C17.0294 9.87807 17.0902 8.66769 16.8876 7.4875C16.3001 4.0125 13.4001 1.2375 9.90009 0.812499C8.66961 0.656831 7.41983 0.784714 6.24637 1.18636C5.07292 1.58801 4.0069 2.25277 3.12988 3.12979C2.25286 4.0068 1.5881 5.07283 1.18645 6.24628C0.784805 7.41973 0.656923 8.66952 0.812591 9.9C1.23759 13.4 4.01259 16.3 7.48759 16.8875C8.66778 17.0901 9.87816 17.0293 11.0321 16.7094C12.1861 16.3896 13.255 15.8187 14.1626 15.0375L14.5001 15.3875V16.375L19.8126 21.6875C20.3251 22.2 21.1626 22.2 21.6751 21.6875C22.1876 21.175 22.1876 20.3375 21.6751 19.825L16.3751 14.5ZM8.87509 14.5C5.76259 14.5 3.25009 11.9875 3.25009 8.875C3.25009 5.7625 5.76259 3.25 8.87509 3.25C11.9876 3.25 14.5001 5.7625 14.5001 8.875C14.5001 11.9875 11.9876 14.5 8.87509 14.5Z" fill="black"/>
</svg>
